Coordinates
version=1
nRows=49
nColumns=12
inDegrees=yes

Units are S.I. units (second, meters, Newtons, ...)
Angles are in degrees

endheader
time	SC_y	SC_z	SC_x	AC_y	AC_z	AC_x	GH_y	GH_z	GH_yy	EL_x	PS_y
       0.0              -24.62          37.67          14.17          41.81          3.597        -0.4636         -134.2          83.46         -139.5          96.11          64.71
  0.004393              -24.62          37.66          14.18          41.82          3.593        -0.4629         -134.2          83.45         -139.5          96.11          64.72
  0.008786              -24.62          37.66          14.18          41.82           3.59        -0.4621         -134.2          83.44         -139.5          96.12          64.72
   0.01318              -24.62          37.66          14.19          41.82          3.587        -0.4614         -134.2          83.43         -139.4          96.12          64.72
   0.01757              -24.62          37.66          14.19          41.82          3.583        -0.4605         -134.2          83.42         -139.4          96.12          64.72
   0.02196              -24.61          37.66           14.2          41.83          3.579        -0.4596         -134.2          83.41         -139.4          96.13          64.72
   0.02636              -24.61          37.66          14.21          41.83          3.575        -0.4587         -134.2          83.39         -139.4          96.13          64.72
   0.03075              -24.61          37.66          14.21          41.83           3.57        -0.4577         -134.2          83.38         -139.3          96.13          64.73
   0.03514              -24.61          37.66          14.22          41.84          3.565        -0.4566         -134.2          83.37         -139.3          96.14          64.73
   0.03954              -24.61          37.66          14.23          41.84           3.56        -0.4554         -134.2          83.35         -139.2          96.14          64.73
   0.04393               -24.6          37.66          14.24          41.85          3.555        -0.4541         -134.2          83.33         -139.2          96.15          64.73
   0.04832               -24.6          37.65          14.25          41.85          3.549        -0.4528         -134.3          83.32         -139.1          96.15          64.74
   0.05271               -24.6          37.65          14.26          41.86          3.542        -0.4513         -134.3           83.3         -139.1          96.16          64.74
   0.05711              -24.59          37.65          14.27          41.86          3.535        -0.4498         -134.3          83.28         -139.0          96.16          64.74
    0.0615              -24.59          37.65          14.28          41.87          3.528        -0.4481         -134.3          83.25         -139.0          96.17          64.75
   0.06589              -24.59          37.65          14.29          41.88          3.519        -0.4462         -134.3          83.23         -138.9          96.18          64.75
   0.07029              -24.58          37.64          14.31          41.88           3.51        -0.4442         -134.3           83.2         -138.8          96.19          64.75
   0.07468              -24.58          37.64          14.32          41.89          3.501         -0.442         -134.4          83.17         -138.8          96.19          64.76
   0.07907              -24.57          37.64          14.34           41.9           3.49        -0.4396         -134.4          83.14         -138.7           96.2          64.76
   0.08346              -24.57          37.64          14.36          41.91          3.479         -0.437         -134.4          83.11         -138.6          96.21          64.77
   0.08786              -24.56          37.63          14.38          41.92          3.466        -0.4341         -134.4          83.07         -138.5          96.23          64.78
   0.09225              -24.56          37.63           14.4          41.93          3.452         -0.431         -134.5          83.03         -138.4          96.24          64.78
   0.09664              -24.55          37.63          14.43          41.94          3.436        -0.4275         -134.5          82.98         -138.3          96.25          64.79
     0.101              -24.54          37.62          14.45          41.96          3.419        -0.4236         -134.5          82.93         -138.1          96.27           64.8
    0.1054              -24.53          37.62          14.48          41.97            3.4        -0.4193         -134.6          82.87         -138.0          96.28          64.81
    0.1098              -24.52          37.61          14.52          41.99          3.379        -0.4145         -134.6          82.81         -137.8           96.3          64.82
    0.1142              -24.51          37.61          14.55          42.01          3.355        -0.4092         -134.7          82.74         -137.6          96.32          64.83
    0.1186               -24.5           37.6           14.6          42.03          3.328        -0.4031         -134.7          82.66         -137.4          96.35          64.84
     0.123              -24.49          37.59          14.65          42.06          3.297        -0.3963         -134.8          82.57         -137.2          96.37          64.86
    0.1274              -24.47          37.58           14.7          42.08          3.263        -0.3885         -134.9          82.47         -136.9           96.4          64.87
    0.1318              -24.46          37.57          14.76          42.11          3.224        -0.3797         -135.0          82.35         -136.6          96.44          64.89
    0.1362              -24.44          37.56          14.83          42.15          3.179        -0.3695         -135.1          82.21         -136.2          96.48          64.91
    0.1406              -24.41          37.55          14.92          42.19          3.126        -0.3578         -135.2          82.06         -135.8          96.52          64.94
     0.145              -24.39          37.53          15.01          42.24          3.066        -0.3442         -135.3          81.88         -135.3          96.58          64.97
    0.1494              -24.35          37.52          15.12           42.3          2.995        -0.3282         -135.5          81.67         -134.8          96.64           65.0
    0.1537              -24.32           37.5          15.26          42.37          2.911        -0.3094         -135.6          81.42         -134.1          96.71          65.04
    0.1581              -24.27          37.47          15.41          42.45          2.812        -0.2871         -135.8          81.12         -133.3           96.8          65.09
    0.1625              -24.22          37.44           15.6          42.54          2.693        -0.2603         -136.1          80.77         -132.4           96.9          65.14
    0.1669              -24.16          37.41          15.83          42.66          2.549        -0.2279         -136.4          80.34         -131.3          97.03          65.21
    0.1713              -24.08          37.36          16.11           42.8          2.373        -0.1884         -136.8          79.82         -129.9          97.18           65.3
    0.1757              -23.98          37.31          16.45          42.98          2.156        -0.1395         -137.3          79.17         -128.2          97.37           65.4
    0.1801              -23.86          37.24          16.88           43.2          1.885       -0.07861         -137.9          78.36         -126.0          97.61          65.53
    0.1845              -23.71          37.16          17.42          43.47          1.544      -0.001899         -138.6          77.35         -123.4          97.91          65.69
    0.1889              -23.52          37.05           18.1          43.82          1.111        0.09563         -139.5          76.06         -119.9          98.29           65.9
    0.1933              -23.27          36.92          18.98          44.27         0.5562         0.2205         -140.7           74.4         -115.6          98.78          66.16
    0.1977              -22.95          36.74           20.1          44.84        -0.1558         0.3806         -142.3          72.28         -110.0           99.4           66.5
    0.2021              -22.55          36.52          21.54          45.58         -1.065         0.5853         -144.2          69.58         -102.8          100.2          66.94
    0.2065              -22.04          36.24          23.35           46.5         -2.209         0.8425         -146.7          66.17          -93.8          101.2          67.48
    0.2109              -21.42          35.89          25.55          47.63         -3.603          1.156         -149.7          62.02         -82.83          102.4          68.15
